<svg id="visual" viewBox="0 0 9500 5000" width="9500" height="5000" xmlns="http://www.w3.org/2000/svg" xmlns:xlink="http://www.w3.org/1999/xlink" version="1.1"><rect x="0" y="0" width="9500" height="5000" fill="#FFFFFF"></rect><path d="M0 2921L226.2 2795.5C452.3 2670 904.7 2419 1357 2311C1809.3 2203 2261.7 2238 2714 2488.7C3166.3 2739.3 3618.7 3205.7 4071.2 3212.7C4523.7 3219.7 4976.3 2767.3 5428.8 2742.8C5881.3 2718.3 6333.7 3121.7 6786 3077.2C7238.3 3032.7 7690.7 2540.3 8143 2361.2C8595.3 2182 9047.7 2316 9273.8 2383L9500 2450L9500 0L9273.8 0C9047.7 0 8595.3 0 8143 0C7690.7 0 7238.3 0 6786 0C6333.7 0 5881.3 0 5428.8 0C4976.3 0 4523.7 0 4071.2 0C3618.7 0 3166.3 0 2714 0C2261.7 0 1809.3 0 1357 0C904.7 0 452.3 0 226.2 0L0 0Z" fill="#144297" stroke-linecap="round" stroke-linejoin="miter"></path></svg>